<svg width="100" height="80" viewBox="0 0 100 80" fill="none" xmlns="http://www.w3.org/2000/svg">
<path d="M0 6.25C0 4.5924 0.658479 3.00268 1.83058 1.83058C3.00268 0.658479 4.5924 0 6.25 0H93.75C95.4076 0 96.9973 0.658479 98.1694 1.83058C99.3415 3.00268 100 4.5924 100 6.25C100 7.9076 99.3415 9.49732 98.1694 10.6694C96.9973 11.8415 95.4076 12.5 93.75 12.5H6.25C4.5924 12.5 3.00268 11.8415 1.83058 10.6694C0.658479 9.49732 0 7.9076 0 6.25ZM0 39.5833C0 37.9257 0.658479 36.336 1.83058 35.1639C3.00268 33.9918 4.5924 33.3333 6.25 33.3333H93.75C95.4076 33.3333 96.9973 33.9918 98.1694 35.1639C99.3415 36.336 100 37.9257 100 39.5833C100 41.2409 99.3415 42.8306 98.1694 44.0027C96.9973 45.1748 95.4076 45.8333 93.75 45.8333H6.25C4.5924 45.8333 3.00268 45.1748 1.83058 44.0027C0.658479 42.8306 0 41.2409 0 39.5833ZM0 72.9167C0 71.2591 0.658479 69.6694 1.83058 68.4972C3.00268 67.3251 4.5924 66.6667 6.25 66.6667H93.75C95.4076 66.6667 96.9973 67.3251 98.1694 68.4972C99.3415 69.6694 100 71.2591 100 72.9167C100 74.5743 99.3415 76.164 98.1694 77.3361C96.9973 78.5082 95.4076 79.1667 93.75 79.1667H6.25C4.5924 79.1667 3.00268 78.5082 1.83058 77.3361C0.658479 76.164 0 74.5743 0 72.9167Z" fill="#252525"/>
</svg>
