<svg width="12" height="12" viewBox="0 0 12 12" fill="none" xmlns="http://www.w3.org/2000/svg">
<path d="M12 1.002C12 0.818604 11.9496 0.63874 11.8542 0.482084C11.7588 0.325428 11.6222 0.198011 11.4593 0.113772C11.2964 0.0295319 11.1135 -0.0082869 10.9305 0.00445199C10.7476 0.0171909 10.5717 0.0799969 10.422 0.186L3.422 5.149C3.29197 5.24095 3.18578 5.36262 3.11227 5.50389C3.03875 5.64516 3.00004 5.80195 2.99936 5.9612C2.99867 6.12045 3.03603 6.27756 3.10833 6.41946C3.18062 6.56136 3.28576 6.68394 3.415 6.777L10.415 11.814C10.5643 11.9217 10.7405 11.9861 10.9241 12.0001C11.1077 12.0141 11.2916 11.9771 11.4555 11.8932C11.6194 11.8093 11.757 11.6818 11.8531 11.5248C11.9492 11.3677 12 11.1871 12 11.003V1.002ZM0 0.5C0 0.367392 0.0526785 0.240215 0.146447 0.146447C0.240215 0.0526785 0.367392 0 0.5 0C0.632608 0 0.759785 0.0526785 0.853553 0.146447C0.947321 0.240215 1 0.367392 1 0.5V11.5C1 11.6326 0.947321 11.7598 0.853553 11.8536C0.759785 11.9473 0.632608 12 0.5 12C0.367392 12 0.240215 11.9473 0.146447 11.8536C0.0526785 11.7598 0 11.6326 0 11.5V0.5Z" fill="#252525"/>
</svg>
