<svg width="32" height="30" viewBox="0 0 32 30" fill="none" xmlns="http://www.w3.org/2000/svg">
<path d="M30.3141 13.7298L24.0631 19.1237L25.9676 27.1903C26.0727 27.6282 26.0456 28.0874 25.8899 28.5099C25.7341 28.9324 25.4566 29.2993 25.0924 29.5642C24.7282 29.8291 24.2937 29.9801 23.8437 29.9982C23.3938 30.0162 22.9485 29.9005 22.5643 29.6657L15.5493 25.3483L8.5301 29.6657C8.14591 29.8992 7.70122 30.0138 7.25203 29.9951C6.80284 29.9763 6.36924 29.8251 6.00581 29.5605C5.64239 29.2958 5.36539 28.9295 5.20971 28.5078C5.05403 28.086 5.02663 27.6276 5.13095 27.1903L7.04236 19.1237L0.79136 13.7298C0.451441 13.436 0.205606 13.0486 0.0845555 12.6159C-0.0364952 12.1833 -0.0273961 11.7245 0.110716 11.297C0.248828 10.8695 0.509832 10.4921 0.861133 10.212C1.21243 9.93196 1.63846 9.76159 2.08601 9.7222L10.2818 9.06098L13.4434 1.40976C13.6145 0.992768 13.9058 0.636087 14.2801 0.385061C14.6545 0.134034 15.0951 0 15.5458 0C15.9965 0 16.4371 0.134034 16.8115 0.385061C17.1858 0.636087 17.4771 0.992768 17.6482 1.40976L20.8085 9.06098L29.0042 9.7222C29.4527 9.76013 29.8799 9.92954 30.2325 10.2092C30.5851 10.4889 30.8473 10.8664 30.9863 11.2945C31.1252 11.7225 31.1348 12.1821 31.0138 12.6155C30.8927 13.049 30.6465 13.4371 30.3058 13.7312L30.3141 13.7298Z" fill="black"/>
</svg>
